{
  "source": "C:\\Users\\Peter\\Desktop\\stuff\\MIUN\\quantitative_research\\video_compression\\videos\\UVG\\ShakeNDry_1920x1080_120fps_420_8bit_YUV.y4m",
  "output": "C:\\Users\\Peter\\Desktop\\stuff\\MIUN\\quantitative_research\\video_compression\\compressed_videos\\UVG\\vp9\\4\\ShakeNDry_1920x1080_120fps_420_8bit_YUV_vp9.webm",
  "codec": "vp9",
  "ok": "[yuv4mpegpipe @ 000001ebbcde52c0] Stream #0: not enough frames to estimate rate; consider increasing probesize\nInput #0, yuv4mpegpipe, from 'C:\\Users\\Peter\\Desktop\\stuff\\MIUN\\quantitative_research\\video_compression\\videos\\UVG\\ShakeNDry_1920x1080_120fps_420_8bit_YUV.y4m':\n  Duration: 00:00:02.50, start: 0.000000, bitrate: 2985989 kb/s\n  Stream #0:0: Video: rawvideo (I420 / 0x30323449), yuv420p(progressive), 1920x1080, 120 fps, 120 tbr, 120 tbn\n[out#0/webm @ 000001ebbcde9b80] Codec AVOption b:a (set bitrate (in bits/s)) has not been used for any stream. The most likely reason is either wrong type (e.g. a video option with no video streams) or that it is a private option of some decoder which was not actually used for any stream.\nStream mapping:\n  Stream #0:0 -> #0:0 (rawvideo (native) -> vp9 (libvpx-vp9))\nPress [q] to stop, [?] for help\n[libvpx-vp9 @ 000001ebbcdecec0] v1.15.2-100-g40561f514\nOutput #0, webm, to 'C:\\Users\\Peter\\Desktop\\stuff\\MIUN\\quantitative_research\\video_compression\\compressed_videos\\UVG\\vp9\\4\\ShakeNDry_1920x1080_120fps_420_8bit_YUV_vp9.webm':\n  Metadata:\n    encoder         : Lavf62.3.100\n  Stream #0:0: Video: vp9, yuv420p(tv, progressive), 1920x1080, q=2-31, 4000 kb/s, 120 fps, 1k tbn\n    Metadata:\n      encoder         : Lavc62.11.100 libvpx-vp9\n    Side data:\n      cpb: bitrate max/min/avg: 0/0/0 buffer size: 4000000 vbv_delay: N/A\nframe=    3 fps=0.0 q=60.0 size=       0KiB time=00:00:00.02 bitrate= 153.9kbits/s speed=0.048x elapsed=0:00:00.52    \nframe=    9 fps=8.6 q=56.0 size=       0KiB time=00:00:00.07 bitrate=  51.3kbits/s speed=0.0714x elapsed=0:00:01.05    \nframe=   15 fps=9.5 q=56.0 size=       0KiB time=00:00:00.12 bitrate=  30.8kbits/s speed=0.0793x elapsed=0:00:01.57    \nframe=   21 fps= 10 q=56.0 size=       0KiB time=00:00:00.17 bitrate=  22.0kbits/s speed=0.0833x elapsed=0:00:02.09    \nframe=   26 fps= 10 q=56.0 size=       0KiB time=00:00:00.21 bitrate=  17.8kbits/s speed=0.0829x elapsed=0:00:02.61    \nframe=   31 fps=9.9 q=41.0 size=       0KiB time=00:00:00.25 bitrate=  14.9kbits/s speed=0.0822x elapsed=0:00:03.14    \nframe=   37 fps= 10 q=56.0 size=       0KiB time=00:00:00.30 bitrate=  12.5kbits/s speed=0.0843x elapsed=0:00:03.65    \nframe=   43 fps= 10 q=56.0 size=       0KiB time=00:00:00.35 bitrate=  10.7kbits/s speed=0.0856x elapsed=0:00:04.18    \nframe=   47 fps= 10 q=57.0 size=       0KiB time=00:00:00.39 bitrate=   9.8kbits/s speed=0.0833x elapsed=0:00:04.70    \nframe=   53 fps= 10 q=56.0 size=       0KiB time=00:00:00.44 bitrate=   8.7kbits/s speed=0.0848x elapsed=0:00:05.20    \nframe=   59 fps= 10 q=56.0 size=       0KiB time=00:00:00.49 bitrate=   7.8kbits/s speed=0.0859x elapsed=0:00:05.72    \nframe=   63 fps= 10 q=56.0 size=       0KiB time=00:00:00.52 bitrate=   7.3kbits/s speed=0.0841x elapsed=0:00:06.24    \nframe=   69 fps= 10 q=56.0 size=       0KiB time=00:00:00.57 bitrate=   6.7kbits/s speed=0.0852x elapsed=0:00:06.75    \nframe=   75 fps= 10 q=55.0 size=       0KiB time=00:00:00.62 bitrate=   6.2kbits/s speed=0.086x elapsed=0:00:07.27    \nframe=   80 fps= 10 q=55.0 size=       0KiB time=00:00:00.66 bitrate=   5.8kbits/s speed=0.0856x elapsed=0:00:07.79    \nframe=   87 fps= 10 q=55.0 size=       0KiB time=00:00:00.72 bitrate=   5.3kbits/s speed=0.0872x elapsed=0:00:08.31    \nframe=   91 fps= 10 q=36.0 size=       0KiB time=00:00:00.75 bitrate=   5.1kbits/s speed=0.0858x elapsed=0:00:08.83    \nframe=   97 fps= 10 q=54.0 size=       0KiB time=00:00:00.80 bitrate=   4.8kbits/s speed=0.0864x elapsed=0:00:09.35    \nframe=  104 fps= 11 q=53.0 size=       0KiB time=00:00:00.86 bitrate=   4.4kbits/s speed=0.0878x elapsed=0:00:09.87    \nframe=  109 fps= 10 q=54.0 size=       0KiB time=00:00:00.90 bitrate=   4.2kbits/s speed=0.0873x elapsed=0:00:10.40    \nframe=  115 fps= 11 q=53.0 size=       0KiB time=00:00:00.95 bitrate=   4.0kbits/s speed=0.0877x elapsed=0:00:10.92    \nframe=  121 fps= 11 q=53.0 size=       0KiB time=00:00:01.00 bitrate=   3.8kbits/s speed=0.0881x elapsed=0:00:11.45    \nframe=  127 fps= 11 q=53.0 size=       0KiB time=00:00:01.05 bitrate=   3.6kbits/s speed=0.0885x elapsed=0:00:11.96    \nframe=  133 fps= 11 q=51.0 size=     256KiB time=00:00:01.10 bitrate=1892.2kbits/s speed=0.0889x elapsed=0:00:12.47    \nframe=  141 fps= 11 q=49.0 size=     256KiB time=00:00:01.17 bitrate=1784.8kbits/s speed=0.0904x elapsed=0:00:12.99    \nframe=  146 fps= 11 q=48.0 size=     256KiB time=00:00:01.21 bitrate=1723.7kbits/s speed=0.0901x elapsed=0:00:13.50    \nframe=  153 fps= 11 q=47.0 size=     256KiB time=00:00:01.27 bitrate=1644.8kbits/s speed=0.0909x elapsed=0:00:14.01    \nframe=  158 fps= 11 q=46.0 size=     256KiB time=00:00:01.31 bitrate=1592.8kbits/s speed=0.0905x elapsed=0:00:14.54    \nframe=  165 fps= 11 q=44.0 size=     256KiB time=00:00:01.37 bitrate=1525.2kbits/s speed=0.0914x elapsed=0:00:15.04    \nframe=  171 fps= 11 q=43.0 size=     256KiB time=00:00:01.42 bitrate=1471.7kbits/s speed=0.0915x elapsed=0:00:15.57    \nframe=  176 fps= 11 q=43.0 size=     256KiB time=00:00:01.46 bitrate=1429.9kbits/s speed=0.0912x elapsed=0:00:16.08    \nframe=  183 fps= 11 q=45.0 size=     256KiB time=00:00:01.52 bitrate=1375.2kbits/s speed=0.0918x elapsed=0:00:16.60    \nframe=  188 fps= 11 q=44.0 size=     256KiB time=00:00:01.56 bitrate=1338.6kbits/s speed=0.0915x elapsed=0:00:17.11    \nframe=  195 fps= 11 q=44.0 size=     256KiB time=00:00:01.62 bitrate=1290.6kbits/s speed=0.0921x elapsed=0:00:17.63    \nframe=  202 fps= 11 q=45.0 size=     256KiB time=00:00:01.68 bitrate=1245.8kbits/s speed=0.0928x elapsed=0:00:18.14    \nframe=  208 fps= 11 q=43.0 size=     256KiB time=00:00:01.73 bitrate=1209.9kbits/s speed=0.0927x elapsed=0:00:18.68    \nframe=  215 fps= 11 q=44.0 size=     256KiB time=00:00:01.79 bitrate=1170.5kbits/s speed=0.0932x elapsed=0:00:19.21    \nframe=  221 fps= 11 q=43.0 size=     256KiB time=00:00:01.84 bitrate=1138.7kbits/s speed=0.0932x elapsed=0:00:19.76    \nframe=  228 fps= 11 q=42.0 size=     256KiB time=00:00:01.90 bitrate=1103.8kbits/s speed=0.0936x elapsed=0:00:20.28    \nframe=  235 fps= 11 q=45.0 size=     256KiB time=00:00:01.95 bitrate=1070.9kbits/s speed=0.0941x elapsed=0:00:20.81    \nframe=  242 fps= 11 q=44.0 size=     256KiB time=00:00:02.01 bitrate=1039.9kbits/s speed=0.0945x elapsed=0:00:21.34    \nframe=  248 fps= 11 q=41.0 size=     256KiB time=00:00:02.06 bitrate=1014.8kbits/s speed=0.0945x elapsed=0:00:21.87    \nframe=  255 fps= 11 q=42.0 size=     256KiB time=00:00:02.12 bitrate= 986.9kbits/s speed=0.0949x elapsed=0:00:22.38    \nframe=  260 fps= 11 q=41.0 size=     768KiB time=00:00:02.16 bitrate=2903.7kbits/s speed=0.0946x elapsed=0:00:22.89    \nframe=  268 fps= 11 q=39.0 size=     768KiB time=00:00:02.23 bitrate=2817.1kbits/s speed=0.0953x elapsed=0:00:23.42    \nframe=  273 fps= 11 q=40.0 size=     768KiB time=00:00:02.27 bitrate=2765.5kbits/s speed=0.0951x elapsed=0:00:23.93    \nframe=  276 fps= 11 q=38.0 size=     768KiB time=00:00:02.30 bitrate=2735.4kbits/s speed=0.0941x elapsed=0:00:24.45    \nframe=  276 fps= 11 q=38.0 size=     768KiB time=00:00:02.30 bitrate=2735.4kbits/s speed=0.0922x elapsed=0:00:24.95    \nframe=  276 fps= 11 q=38.0 size=     768KiB time=00:00:02.30 bitrate=2735.4kbits/s speed=0.0903x elapsed=0:00:25.47    \nframe=  276 fps= 11 q=38.0 size=     768KiB time=00:00:02.30 bitrate=2735.4kbits/s speed=0.0885x elapsed=0:00:25.99    \n[out#0/webm @ 000001ebbcde9b80] video:1241KiB audio:0KiB subtitle:0KiB other streams:0KiB global headers:0KiB muxing overhead: 0.211624%\nframe=  300 fps= 11 q=24.0 Lsize=    1244KiB time=00:00:02.50 bitrate=4076.2kbits/s speed=0.0949x elapsed=0:00:26.34    \n",
  "seconds": 26.472942113876343,
  "probe_out": {}
}